<svg xmlns="http://www.w3.org/2000/svg" viewBox="0 0 100 100">
  <circle cx="50" cy="38" r="26" fill="#58cc02"/>
  <circle cx="50" cy="65" rx="28" ry="25" fill="#58cc02" />
  <ellipse cx="50" cy="65" rx="28" ry="25" fill="#58cc02"/>
  <circle cx="40" cy="34" r="9" fill="white"/>
  <circle cx="60" cy="34" r="9" fill="white"/>
  <circle cx="42" cy="35" r="5" fill="#1a1a1a"/>
  <circle cx="62" cy="35" r="5" fill="#1a1a1a"/>
  <circle cx="44" cy="33" r="2" fill="white"/>
  <circle cx="64" cy="33" r="2" fill="white"/>
  <ellipse cx="50" cy="46" rx="8" ry="5" fill="#ffa500"/>
  <ellipse cx="50" cy="65" rx="16" ry="14" fill="#89e219"/>
  <ellipse cx="24" cy="62" rx="10" ry="16" fill="#46a302" transform="rotate(-15 24 62)"/>
  <ellipse cx="76" cy="62" rx="10" ry="16" fill="#46a302" transform="rotate(15 76 62)"/>
  <ellipse cx="38" cy="88" rx="10" ry="5" fill="#ffa500" transform="rotate(-10 38 88)"/>
  <ellipse cx="62" cy="88" rx="10" ry="5" fill="#ffa500" transform="rotate(10 62 88)"/>
</svg>
